<mxfile host="65bd71144e">
    <diagram id="G1_WaklZp1itaRuujwWX" name="Page-1">
        <mxGraphModel dx="856" dy="1599" grid="1" gridSize="10" guides="1" tooltips="1" connect="1" arrows="1" fold="1" page="1" pageScale="1" pageWidth="850" pageHeight="1100" math="0" shadow="0">
            <root>
                <mxCell id="0"/>
                <mxCell id="1" parent="0"/>
                <mxCell id="32" value="" style="rounded=0;whiteSpace=wrap;html=1;shadow=0;" vertex="1" parent="1">
                    <mxGeometry x="50" y="-625" width="660" height="595" as="geometry"/>
                </mxCell>
                <mxCell id="10" value="User" style="html=1;whiteSpace=wrap;dashed=1;" parent="1" vertex="1">
                    <mxGeometry x="80" y="-505" width="110" height="30" as="geometry"/>
                </mxCell>
                <mxCell id="11" value="" style="shape=umlLifeline;perimeter=lifelinePerimeter;whiteSpace=wrap;html=1;container=1;dropTarget=0;collapsible=0;recursiveResize=0;outlineConnect=0;portConstraint=eastwest;newEdgeStyle={&quot;curved&quot;:0,&quot;rounded&quot;:0};participant=umlActor;" parent="1" vertex="1">
                    <mxGeometry x="125" y="-475" width="20" height="310" as="geometry"/>
                </mxCell>
                <mxCell id="13" value="Pet Schdule Console" style="html=1;whiteSpace=wrap;" parent="1" vertex="1">
                    <mxGeometry x="400" y="-505" width="160" height="50" as="geometry"/>
                </mxCell>
                <mxCell id="14" value="" style="html=1;verticalAlign=bottom;labelBackgroundColor=none;endArrow=block;endFill=1;dashed=1;exitX=0.5;exitY=1;exitDx=0;exitDy=0;" parent="1" source="13" edge="1">
                    <mxGeometry width="160" relative="1" as="geometry">
                        <mxPoint x="360" y="-225" as="sourcePoint"/>
                        <mxPoint x="480" y="-165" as="targetPoint"/>
                    </mxGeometry>
                </mxCell>
                <mxCell id="15" value="" style="html=1;verticalAlign=bottom;labelBackgroundColor=none;endArrow=block;endFill=1;dashed=1;" parent="1" edge="1">
                    <mxGeometry width="160" relative="1" as="geometry">
                        <mxPoint x="125" y="-405" as="sourcePoint"/>
                        <mxPoint x="480" y="-405" as="targetPoint"/>
                    </mxGeometry>
                </mxCell>
                <mxCell id="17" value="1) Select &quot;Add Pet&quot;" style="text;strokeColor=none;align=left;fillColor=none;html=1;verticalAlign=middle;whiteSpace=wrap;rounded=0;" parent="1" vertex="1">
                    <mxGeometry x="160" y="-445" width="170" height="30" as="geometry"/>
                </mxCell>
                <mxCell id="19" value="" style="html=1;verticalAlign=bottom;labelBackgroundColor=none;endArrow=block;endFill=1;dashed=1;" parent="1" edge="1">
                    <mxGeometry width="160" relative="1" as="geometry">
                        <mxPoint x="480" y="-365" as="sourcePoint"/>
                        <mxPoint x="135" y="-365" as="targetPoint"/>
                    </mxGeometry>
                </mxCell>
                <mxCell id="20" value="2) Prompt for pet name" style="text;strokeColor=none;align=left;fillColor=none;html=1;verticalAlign=middle;whiteSpace=wrap;rounded=0;" parent="1" vertex="1">
                    <mxGeometry x="160" y="-395" width="170" height="30" as="geometry"/>
                </mxCell>
                <mxCell id="21" value="&lt;p style=&quot;margin: 0in; font-size: 12pt; font-family: &amp;quot;Times New Roman&amp;quot;, serif; color: rgb(0, 0, 0); text-align: start;&quot; class=&quot;MsoNormal&quot;&gt;&lt;b&gt;&lt;span style=&quot;font-size: 18pt;&quot;&gt;Use Case: Add a Pet&lt;/span&gt;&lt;/b&gt;&lt;/p&gt;" style="text;strokeColor=none;align=center;fillColor=none;html=1;verticalAlign=middle;whiteSpace=wrap;rounded=0;dashed=1;dashPattern=1 1;" parent="1" vertex="1">
                    <mxGeometry x="140" y="-565" width="220" height="30" as="geometry"/>
                </mxCell>
                <mxCell id="22" value="3) Enter pet nane" style="text;strokeColor=none;align=left;fillColor=none;html=1;verticalAlign=middle;whiteSpace=wrap;rounded=0;" parent="1" vertex="1">
                    <mxGeometry x="160" y="-355" width="170" height="30" as="geometry"/>
                </mxCell>
                <mxCell id="23" value="" style="html=1;verticalAlign=bottom;labelBackgroundColor=none;endArrow=classic;endFill=1;dashed=1;" parent="1" edge="1">
                    <mxGeometry width="160" relative="1" as="geometry">
                        <mxPoint x="132" y="-321" as="sourcePoint"/>
                        <mxPoint x="477" y="-321" as="targetPoint"/>
                    </mxGeometry>
                </mxCell>
                <mxCell id="24" value="4) Call PerService.AddPet(name)" style="text;strokeColor=none;align=left;fillColor=none;html=1;verticalAlign=middle;whiteSpace=wrap;rounded=0;" parent="1" vertex="1">
                    <mxGeometry x="150" y="-315" width="310" height="30" as="geometry"/>
                </mxCell>
                <mxCell id="25" value="" style="html=1;verticalAlign=bottom;labelBackgroundColor=none;endArrow=classic;endFill=1;dashed=1;" parent="1" edge="1">
                    <mxGeometry width="160" relative="1" as="geometry">
                        <mxPoint x="477.5" y="-255" as="sourcePoint"/>
                        <mxPoint x="132.5" y="-255" as="targetPoint"/>
                    </mxGeometry>
                </mxCell>
                <mxCell id="26" value="5) Return new Pet ID" style="text;strokeColor=none;align=left;fillColor=none;html=1;verticalAlign=middle;whiteSpace=wrap;rounded=0;" parent="1" vertex="1">
                    <mxGeometry x="150" y="-295" width="310" height="30" as="geometry"/>
                </mxCell>
                <mxCell id="27" value="6) Display success message" style="text;strokeColor=none;align=left;fillColor=none;html=1;verticalAlign=middle;whiteSpace=wrap;rounded=0;" parent="1" vertex="1">
                    <mxGeometry x="160" y="-245" width="310" height="30" as="geometry"/>
                </mxCell>
                <mxCell id="28" value="" style="html=1;verticalAlign=bottom;labelBackgroundColor=none;endArrow=classic;endFill=1;dashed=1;" parent="1" edge="1">
                    <mxGeometry width="160" relative="1" as="geometry">
                        <mxPoint x="477.5" y="-205" as="sourcePoint"/>
                        <mxPoint x="132.5" y="-205" as="targetPoint"/>
                    </mxGeometry>
                </mxCell>
                <mxCell id="29" value="(End)" style="text;strokeColor=none;align=left;fillColor=none;html=1;verticalAlign=middle;whiteSpace=wrap;rounded=0;" parent="1" vertex="1">
                    <mxGeometry x="150" y="-205" width="310" height="30" as="geometry"/>
                </mxCell>
                <mxCell id="30" value="&lt;p class=&quot;MsoNormal&quot; style=&quot;mso-margin-top-alt:auto;mso-margin-bottom-alt:auto&quot;&gt;The user chooses to add a pet, the system asks for a name, and then calls&amp;nbsp;&lt;span style=&quot;font-size:10.0pt;font-family:&amp;quot;Courier New&amp;quot;&quot;&gt;IPetService.AddPet&lt;/span&gt;.&lt;br&gt;The service returns a new&amp;nbsp;&lt;span style=&quot;font-size:10.0pt;font-family:&amp;quot;Courier New&amp;quot;&quot;&gt;Pet&lt;/span&gt;&amp;nbsp;object with an ID. The console displays confirmation.&lt;/p&gt;" style="text;whiteSpace=wrap;html=1;" vertex="1" parent="1">
                    <mxGeometry x="70" y="-150" width="740" height="70" as="geometry"/>
                </mxCell>
            </root>
        </mxGraphModel>
    </diagram>
</mxfile>